Coordinates
version=1
nRows=24
nColumns=38
inDegrees=no

Units are S.I. units (second, meters, Newtons, ...)
If the header above contains a line with 'inDegrees', this indicates whether rotational values are in degrees (yes) or radians (no).

endheader
time	pelvis_tilt	pelvis_list	pelvis_rotation	pelvis_tx	pelvis_ty	pelvis_tz	hip_flexion_r	hip_adduction_r	hip_rotation_r	knee_angle_r	ankle_angle_r	subtalar_angle_r	mtp_angle_r	hip_flexion_l	hip_adduction_l	hip_rotation_l	knee_angle_l	ankle_angle_l	subtalar_angle_l	mtp_angle_l	lumbar_extension	lumbar_bending	lumbar_rotation	arm_flex_r	arm_add_r	arm_rot_r	elbow_flex_r	pro_sup_r	wrist_flex_r	wrist_dev_r	arm_flex_l	arm_add_l	arm_rot_l	elbow_flex_l	pro_sup_l	wrist_flex_l	wrist_dev_l
1.43	-0.152043	0.0433244	0.0158907	0.722818	1.02335	-0.328673	0.0429382	-0.0734354	-0.164987	-0.987434	-0.148805	0.000369651	0.0034702	0.582772	0.0701216	-0.157029	-0.383329	0.0267268	0.030297	0.00968823	-0.0293019	-0.0351253	0.0251228	-0.317729	-0.296755	0.0368733	1.63647	1.56579	0.0331994	-0.033171	-0.800664	-0.469179	0.116872	1.8377	1.38478	-0.00715182	-0.00142931
1.44	-0.149654	0.0336027	0.0237737	0.722395	1.0184	-0.329563	0.0726714	-0.0698522	-0.166834	-1.07894	-0.132397	0.000369651	0.0034702	0.576478	0.0664858	-0.158391	-0.388145	0.0274102	0.030297	0.00968823	-0.0312202	-0.0272639	0.0132194	-0.326799	-0.295069	0.0357105	1.61949	1.55122	0.0331994	-0.033171	-0.780838	-0.475096	0.12423	1.84328	1.3896	-0.00715182	-0.00142931
1.45	-0.147504	0.0250853	0.0314586	0.721694	1.01238	-0.330456	0.106905	-0.0678864	-0.169144	-1.17285	-0.115712	0.000369651	0.0034702	0.574188	0.0638866	-0.156655	-0.411928	0.0399345	0.030297	0.00968823	-0.0331886	-0.0206553	-7.22668e-05	-0.335134	-0.293278	0.034588	1.59908	1.53401	0.0331994	-0.033171	-0.757642	-0.482325	0.132598	1.84985	1.39495	-0.00715182	-0.00142931
1.46	-0.145844	0.018273	0.0387906	0.720705	1.00536	-0.331346	0.145569	-0.0673945	-0.170466	-1.26725	-0.0991973	0.000369651	0.0034702	0.574955	0.063284	-0.151061	-0.451581	0.0660838	0.030297	0.00968823	-0.035071	-0.0158071	-0.0145251	-0.342654	-0.291269	0.0332395	1.57509	1.51575	0.0331994	-0.033171	-0.731141	-0.49066	0.141799	1.85741	1.40039	-0.00715182	-0.00142931
1.47	-0.144905	0.0136448	0.0455858	0.719382	0.997477	-0.33221	0.188635	-0.068226	-0.169383	-1.36029	-0.0830546	0.000369651	0.0034702	0.577523	0.0653782	-0.141952	-0.502947	0.105954	0.030297	0.00968823	-0.0368029	-0.0131881	-0.0298504	-0.349282	-0.288933	0.0313678	1.54744	1.49843	0.0331994	-0.033171	-0.701261	-0.499851	0.151783	1.86579	1.40555	-0.00715182	-0.00142931
1.48	-0.144844	0.011571	0.0516493	0.71766	0.989029	-0.333008	0.236041	-0.0701921	-0.164719	-1.45014	-0.0673283	0.000369651	0.0034702	0.580476	0.070469	-0.130568	-0.561245	0.157665	0.030297	0.00968823	-0.0383904	-0.0131382	-0.0457048	-0.354955	-0.286177	0.0287166	1.51619	1.48403	0.0331994	-0.033171	-0.667842	-0.509611	0.162603	1.8747	1.4102	-0.00715182	-0.00142931
1.49	-0.145683	0.0121676	0.056798	0.715533	0.980399	-0.333694	0.287555	-0.0729803	-0.155727	-1.53497	-0.0519677	0.000369651	0.0034702	0.58237	0.078358	-0.11856	-0.621606	0.217599	0.030297	0.00968823	-0.0399326	-0.0157432	-0.0617151	-0.359653	-0.282951	0.0251425	1.48165	1.47417	0.0331994	-0.033171	-0.630725	-0.519619	0.174359	1.8838	1.41431	-0.00715182	-0.00142931
1.5	-0.147271	0.0151975	0.0608954	0.713058	0.972023	-0.334246	0.342633	-0.076075	-0.142254	-1.61288	-0.036868	0.000369651	0.0034702	0.581791	0.0883082	-0.107445	-0.679558	0.28112	0.030297	0.00968823	-0.0416451	-0.0207024	-0.0775093	-0.36343	-0.279274	0.02067	1.44448	1.4697	0.0331994	-0.033171	-0.58985	-0.529524	0.187127	1.89283	1.41804	-0.00715182	-0.00142931
1.51	-0.149284	0.0200179	0.0638757	0.710307	0.964365	-0.334661	0.40031	-0.0787689	-0.124831	-1.68193	-0.0218962	0.000369651	0.0034702	0.577354	0.0991084	-0.0982332	-0.73135	0.343468	0.030297	0.00968823	-0.043874	-0.0272801	-0.092748	-0.366457	-0.275268	0.0155162	1.40574	1.47056	0.0331994	-0.033171	-0.545355	-0.538958	0.200887	1.90163	1.42166	-0.00715182	-0.00142931
1.52	-0.151266	0.025624	0.0657557	0.707336	0.957864	-0.334945	0.459223	-0.0802916	-0.104671	-1.74023	-0.00690701	0.000369651	0.0034702	0.567767	0.109236	-0.0913015	-0.774118	0.400506	0.030297	0.00968823	-0.0470132	-0.0343642	-0.107154	-0.369042	-0.271179	0.010094	1.36696	1.47565	0.0331994	-0.033171	-0.497649	-0.547537	0.215484	1.91023	1.42544	-0.00715182	-0.00142931
1.53	-0.152722	0.0308229	0.0666295	0.70422	0.95287	-0.335118	0.517715	-0.0800053	-0.0835345	-1.78603	0.00823267	0.000369651	0.0034702	0.55192	0.117102	-0.0864937	-0.805895	0.449088	0.030297	0.00968823	-0.0513886	-0.0406208	-0.120527	-0.371638	-0.267382	0.00496657	1.33	1.483	0.0331994	-0.033171	-0.447446	-0.554856	0.230628	1.91884	1.42957	-0.00715182	-0.00142931
1.54	-0.153239	0.0344463	0.0666408	0.701083	0.949599	-0.335208	0.57401	-0.0775993	-0.0634694	-1.81789	0.0236149	0.000369651	0.0034702	0.529014	0.121328	-0.0833497	-0.82554	0.487068	0.030297	0.00968823	-0.0571325	-0.0447279	-0.13274	-0.374827	-0.264346	0.000749253	1.2969	1.49013	0.0331994	-0.033171	-0.395742	-0.560511	0.245931	1.92776	1.43405	-0.00715182	-0.00142931
1.55	-0.152582	0.0355489	0.0659526	0.698077	0.948155	-0.335244	0.62642	-0.0731906	-0.0464909	-1.83477	0.0392601	0.000369651	0.0034702	0.498687	0.120986	-0.0813553	-0.832632	0.513109	0.030297	0.00968823	-0.0640866	-0.0456075	-0.143726	-0.379265	-0.262571	-0.00202716	1.26956	1.4946	0.0331994	-0.033171	-0.343748	-0.56412	0.260975	1.93739	1.43873	-0.00715182	-0.00142931
1.56	-0.150737	0.0335594	0.0647312	0.695355	0.948559	-0.335251	0.673512	-0.0672741	-0.0342807	-1.8361	0.0550876	0.000369651	0.0034702	0.46107	0.115713	-0.0801226	-0.82735	0.526424	0.030297	0.00968823	-0.0718046	-0.0425769	-0.153467	-0.385597	-0.262495	-0.00304915	1.24955	1.49456	0.0331994	-0.033171	-0.292779	-0.565382	0.275372	1.94809	1.44332	-0.00715182	-0.00142931
1.57	-0.147908	0.0283328	0.0631309	0.693072	0.950739	-0.33526	0.714207	-0.0605438	-0.0279367	-1.8218	0.0708893	0.000369651	0.0034702	0.416786	0.105708	-0.0795023	-0.810378	0.526575	0.030297	0.00968823	-0.0796306	-0.0354159	-0.161981	-0.39437	-0.264412	-0.00231916	1.23781	1.48915	0.0331994	-0.033171	-0.244142	-0.564138	0.288837	1.96022	1.44742	-0.00715182	-0.00142931
1.58	-0.144463	0.0201217	0.0612786	0.691358	0.954534	-0.335315	0.74781	-0.0536658	-0.0278108	-1.79219	0.0863084	0.000369651	0.0034702	0.366888	0.0916318	-0.079625	-0.782851	0.51336	0.030297	0.00968823	-0.08683	-0.024355	-0.169313	-0.405945	-0.268408	-0.000193287	1.23458	1.47869	0.0331994	-0.033171	-0.199012	-0.560423	0.301246	1.97405	1.45058	-0.00715182	-0.00142931
1.59	-0.140866	0.00949484	0.059257	0.690295	0.959724	-0.335452	0.773995	-0.0470862	-0.0334466	-1.74796	0.100832	0.000369651	0.0034702	0.312784	0.0744643	-0.0808842	-0.746329	0.486799	0.030297	0.00968823	-0.0927153	-0.0100111	-0.175521	-0.420456	-0.274337	0.00264458	1.23935	1.46464	0.0331994	-0.033171	-0.158341	-0.554493	0.312674	1.9898	1.45226	-0.00715182	-0.00142931
1.6	-0.1376	-0.00280934	0.0570845	0.689913	0.966033	-0.335674	0.792761	-0.0409409	-0.0436273	-1.68999	0.113807	0.000369651	0.0034702	0.256154	0.05537	-0.0838688	-0.702798	0.447221	0.030297	0.00968823	-0.0967377	0.0066831	-0.180662	-0.437797	-0.28183	0.00526325	1.251	1.44934	0.0331994	-0.033171	-0.122795	-0.546814	0.323384	2.00757	1.45193	-0.00715182	-0.00142931
1.61	-0.135077	-0.0159108	0.054736	0.690188	0.973149	-0.335965	0.804388	-0.0350626	-0.0565546	-1.61933	0.124484	0.000369651	0.0034702	0.198872	0.0355553	-0.0892276	-0.654658	0.39541	0.030297	0.00968823	-0.0985256	0.0246161	-0.184782	-0.457636	-0.290337	0.00661995	1.26801	1.43553	0.0331994	-0.033171	-0.0927269	-0.538026	0.333767	2.02733	1.44919	-0.00715182	-0.00142931
1.62	-0.133619	-0.0288395	0.052145	0.691046	0.980735	-0.336291	0.809353	-0.0290993	-0.0701225	-1.53711	0.132085	0.000369651	0.0034702	0.14287	0.0161711	-0.0974914	-0.604657	0.332774	0.030297	0.00968823	-0.0979285	0.0426182	-0.187924	-0.479447	-0.299193	0.00572642	1.28866	1.42584	0.0331994	-0.033171	-0.0681889	-0.528879	0.344233	2.04887	1.44396	-0.00715182	-0.00142931
1.63	-0.133408	-0.0406631	0.0492308	0.692372	0.988443	-0.336616	0.808233	-0.0226945	-0.0822546	-1.44457	0.135885	0.000369651	0.0034702	0.0899751	-0.00173502	-0.108879	-0.555758	0.261467	0.030297	0.00968823	-0.0950464	0.0595438	-0.190146	-0.502558	-0.307701	0.00182013	1.31124	1.42223	0.0331994	-0.033171	-0.0489719	-0.520156	0.355096	2.0718	1.43665	-0.00715182	-0.00142931
1.64	-0.13445	-0.0505649	0.0459325	0.694023	0.995956	-0.336895	0.801643	-0.0156555	-0.0912456	-1.34312	0.135305	0.000369651	0.0034702	0.0417375	-0.0172499	-0.12313	-0.510948	0.18441	0.030297	0.00968823	-0.0902131	0.0743637	-0.19152	-0.526205	-0.315228	-0.00551322	1.33422	1.42563	0.0331994	-0.033171	-0.0346678	-0.512586	0.366499	2.09553	1.42823	-0.00715182	-0.00142931
1.65	-0.136571	-0.0578924	0.0422311	0.695859	1.003	-0.337088	0.790215	-0.00806426	-0.0960419	-1.23448	0.130001	0.000369651	0.0034702	-0.000695626	-0.0296078	-0.139422	-0.473012	0.105164	0.030297	0.00968823	-0.083938	0.0862419	-0.192135	-0.5496	-0.321281	-0.0162889	1.35637	1.43582	0.0331994	-0.033171	-0.0247443	-0.506757	0.378396	2.1193	1.42002	-0.00715182	-0.00142931
1.66	-0.139458	-0.0621863	0.0381469	0.697754	1.00935	-0.337194	0.774614	-0.00030736	-0.0964076	-1.1208	0.119938	0.000369651	0.0034702	-0.0366629	-0.0381944	-0.156403	-0.444327	0.0276336	0.030297	0.00968823	-0.0768305	0.0945794	-0.19207	-0.572	-0.325565	-0.030143	1.37677	1.45149	0.0331994	-0.033171	-0.0186263	-0.503047	0.39058	2.14217	1.4135	-0.00715182	-0.00142931
